<?xml version="1.0" encoding="utf-8"?>
<!-- Generator: Adobe Illustrator 26.2.1, SVG Export Plug-In . SVG Version: 6.00 Build 0)  -->
<svg version="1.1" xmlns="http://www.w3.org/2000/svg" xmlns:xlink="http://www.w3.org/1999/xlink" x="0px" y="0px"
	 viewBox="0 0 500 500" style="enable-background:new 0 0 500 500;" xml:space="preserve">
<style type="text/css">
	.st0{display:none;}
	.st1{display:inline;fill:#FF4343;}
	.st2{display:inline;fill:#4560FF;}
	.st3{display:inline;fill:#FFE445;}
	.st4{display:inline;fill:#FF9545;}
	.st5{display:inline;fill:#C66139;}
	.st6{fill:#FBE2CE;}
	.st7{fill:#4560FF;}
	.st8{font-family:'Montserrat-Black';}
	.st9{font-size:64.6626px;}
</style>
<g id="Calque_1" class="st0">
	<rect x="-66.6" y="52.2" class="st1" width="30.5" height="30.5"/>
	<rect x="-66.6" y="91.3" class="st2" width="30.5" height="30.5"/>
	<rect x="-66.6" y="130.4" class="st3" width="30.5" height="30.5"/>
	<rect x="-66.6" y="169.5" class="st4" width="30.5" height="30.5"/>
	<rect x="-66.6" y="208.6" class="st5" width="30.5" height="30.5"/>
	<rect x="-66.6" y="247.6" class="st1" width="30.5" height="30.5"/>
	
		<image style="display:inline;overflow:visible;" width="264" height="62" xlink:href="865939EC.jpg"  transform="matrix(1 0 0 1 -281.069 310.6092)">
	</image>
</g>
<g id="Calque_2">
	<g>
		<g>
			<path class="st6" d="M74,224.6c-6.3-2.2-13.3-2.9-20.2-1.9l8.6,35.2c0,0,3.4,12.4,14.9,19.2c-4-5-7-11-8.6-17.6
				C65.7,247.1,67.9,234.7,74,224.6z"/>
			<path class="st6" d="M102.9,262.2c-0.1-1.3-0.2-2.6-0.5-3.9c-0.2-1.1-0.4-2.2-0.7-3.3c-0.6-2.3-1.3-4.5-2.2-6.6
				c-5.5,6.5-9,14.5-9.9,23.1v0c-0.4,3.2-0.3,6.4,0.1,9.7c2.8,0.3,5.9,0.3,9.3-0.1c0.3,0,0.6-0.1,0.9-0.1
				C102.3,275.1,103.3,268.7,102.9,262.2z"/>
			<path class="st6" d="M98,245c-1.1-2-2.3-3.9-3.7-5.7c-0.7-1-1.5-1.9-2.3-2.8c-1.7-1.9-3.5-3.6-5.4-5.1c-2.8-2.2-5.9-4.1-9.3-5.5
				c-5.9,9.4-8.1,21.1-5.3,32.8c2.1,8.7,6.8,16.1,12.9,21.7c0.4,0.1,0.8,0.2,1.2,0.3c-0.5-4.9-0.2-9.8,0.8-14.4
				C88.8,258.3,92.6,251,98,245z"/>
			<path class="st7" d="M117.5,223.6c-7.8,3.1-14.6,8.5-19.4,15.7c1.4,1.8,2.6,3.7,3.7,5.7l1.6,3.4c0.9,2.1,1.6,4.3,2.2,6.6
				c0.3,1.1,0.5,2.2,0.7,3.3c5-3.5,10.8-5.9,16.7-7.2C124.3,241.5,122.3,231.8,117.5,223.6z"/>
			<path class="st7" d="M106.7,262.2c0.4,6.5-0.6,12.8-3,18.6c7.2-4.6,12.9-10.9,16.4-19.4c0.9-2.2,1.6-4.4,2.1-6.6
				C116.6,256.2,111.3,258.8,106.7,262.2z"/>
			<path class="st7" d="M95.8,236.5c5-7.2,12-12.6,19.8-15.9c-3.9-5.5-9-10.2-15.3-13.4l-10,24.2C92.3,233,94.1,234.7,95.8,236.5z"
				/>
		</g>
		<text transform="matrix(1 0 0 1 149.2016 275.3391)"><tspan x="0" y="0" class="st6 st8 st9">TEA</tspan><tspan x="137.9" y="0" class="st7 st8 st9">DAO</tspan></text>
	</g>
</g>
</svg>
